<svg width="363" height="49" viewBox="0 0 363 49" fill="none" xmlns="http://www.w3.org/2000/svg">
<rect width="363" height="49" rx="24.5" fill="#EFEBE7"/>
<path d="M22.82 17.9658C24.26 17.9658 25.3933 18.2658 26.22 18.8658C27.06 19.4524 27.48 20.3658 27.48 21.6058C27.48 22.3791 27.3067 23.0458 26.96 23.6058C26.6133 24.1658 26.1333 24.6058 25.52 24.9258C26.32 25.2324 26.9667 25.6791 27.46 26.2658C27.9533 26.8524 28.2 27.5524 28.2 28.3658C28.2 29.3258 27.9667 30.1058 27.5 30.7058C27.0467 31.3058 26.4533 31.7458 25.72 32.0258C24.9867 32.2924 24.2067 32.4258 23.38 32.4258H19.08V17.9658H22.82ZM23.22 24.2858C24.0067 24.2858 24.58 24.0658 24.94 23.6258C25.3 23.1724 25.48 22.6324 25.48 22.0058C25.48 21.2458 25.2467 20.6924 24.78 20.3458C24.3133 19.9991 23.6867 19.8258 22.9 19.8258H21.02V24.2858H23.22ZM23.3 30.6258C24.1 30.6258 24.78 30.4458 25.34 30.0858C25.9133 29.7124 26.2 29.1458 26.2 28.3858C26.2 27.8258 26.0467 27.3858 25.74 27.0658C25.4333 26.7458 25.0467 26.5191 24.58 26.3858C24.1267 26.2391 23.6533 26.1658 23.16 26.1658H21.02V30.6258H23.3ZM32.6628 24.1458L32.8028 26.0858C33.0295 25.6191 33.3428 25.2191 33.7428 24.8858C34.1428 24.5391 34.5561 24.2791 34.9828 24.1058C35.4228 23.9191 35.8028 23.8191 36.1228 23.8058L36.0428 25.6658C35.4161 25.6391 34.8628 25.7658 34.3828 26.0458C33.9028 26.3124 33.5295 26.6791 33.2628 27.1458C32.9961 27.6124 32.8628 28.1124 32.8628 28.6458V32.4258H31.0028V24.1458H32.6628ZM37.4508 28.2058C37.4508 27.3791 37.6441 26.6324 38.0308 25.9658C38.4308 25.2991 38.9774 24.7724 39.6708 24.3858C40.3641 23.9991 41.1574 23.8058 42.0508 23.8058C42.9441 23.8058 43.7308 23.9991 44.4108 24.3858C45.0908 24.7724 45.6174 25.2991 45.9908 25.9658C46.3774 26.6324 46.5708 27.3791 46.5708 28.2058C46.5708 29.0324 46.3774 29.7791 45.9908 30.4458C45.6174 31.1124 45.0841 31.6458 44.3908 32.0458C43.7108 32.4324 42.9174 32.6258 42.0108 32.6258C41.1308 32.6258 40.3441 32.4458 39.6508 32.0858C38.9708 31.7258 38.4308 31.2124 38.0308 30.5458C37.6441 29.8791 37.4508 29.0991 37.4508 28.2058ZM39.3308 28.2258C39.3308 28.7591 39.4441 29.2458 39.6708 29.6858C39.9108 30.1124 40.2308 30.4524 40.6308 30.7058C41.0308 30.9591 41.4841 31.0858 41.9908 31.0858C42.5108 31.0858 42.9708 30.9591 43.3708 30.7058C43.7708 30.4524 44.0841 30.1124 44.3108 29.6858C44.5508 29.2458 44.6708 28.7591 44.6708 28.2258C44.6708 27.6924 44.5508 27.2124 44.3108 26.7858C44.0841 26.3458 43.7708 25.9991 43.3708 25.7458C42.9708 25.4791 42.5108 25.3458 41.9908 25.3458C41.4841 25.3458 41.0241 25.4791 40.6108 25.7458C40.2108 26.0124 39.8974 26.3658 39.6708 26.8058C39.4441 27.2324 39.3308 27.7058 39.3308 28.2258ZM54.1353 24.1458L56.3753 29.3058L58.4753 24.1458H60.3153L56.4953 32.9258L53.8353 27.2458L51.4153 32.9258L47.5753 24.1458H49.4153L51.6153 29.1658L53.1753 25.5658L52.5153 24.1458H54.1353ZM64.6514 32.5858C64.0514 32.5858 63.4714 32.4858 62.9114 32.2858C62.3647 32.0724 61.9114 31.7591 61.5514 31.3458L62.3514 30.2658C62.6847 30.5991 63.0381 30.8524 63.4114 31.0258C63.7847 31.1858 64.1447 31.2658 64.4914 31.2658C64.8914 31.2658 65.2381 31.1858 65.5314 31.0258C65.8381 30.8658 65.9914 30.5924 65.9914 30.2058C65.9914 29.9124 65.8914 29.6791 65.6914 29.5058C65.5047 29.3324 65.2581 29.1991 64.9514 29.1058C64.6581 28.9991 64.3514 28.8924 64.0314 28.7858C62.6181 28.3324 61.9114 27.5258 61.9114 26.3658C61.9114 25.9391 62.0181 25.5324 62.2314 25.1458C62.4581 24.7591 62.7847 24.4458 63.2114 24.2058C63.6514 23.9658 64.1914 23.8458 64.8314 23.8458C65.4047 23.8458 65.9181 23.9191 66.3714 24.0658C66.8247 24.2124 67.2514 24.4458 67.6514 24.7658L66.9114 25.9058C66.6714 25.6658 66.3847 25.4858 66.0514 25.3658C65.7314 25.2324 65.4381 25.1591 65.1714 25.1458C64.8114 25.1458 64.4914 25.2324 64.2114 25.4058C63.9447 25.5791 63.8114 25.8191 63.8114 26.1258C63.7981 26.4058 63.8847 26.6324 64.0714 26.8058C64.2581 26.9658 64.4981 27.0991 64.7914 27.2058C65.0981 27.3124 65.4047 27.4124 65.7114 27.5058C66.3114 27.7058 66.8181 27.9791 67.2314 28.3258C67.6581 28.6724 67.8714 29.1791 67.8714 29.8458C67.8714 30.5924 67.6047 31.2391 67.0714 31.7858C66.5381 32.3191 65.7314 32.5858 64.6514 32.5858ZM74.3155 32.6258C73.3821 32.6258 72.5688 32.4391 71.8755 32.0658C71.1955 31.6791 70.6688 31.1524 70.2955 30.4858C69.9355 29.8191 69.7555 29.0658 69.7555 28.2258C69.7555 27.4124 69.9555 26.6724 70.3555 26.0058C70.7688 25.3258 71.3221 24.7924 72.0155 24.4058C72.7221 24.0058 73.5021 23.8058 74.3555 23.8058C75.4488 23.8058 76.3555 24.1258 77.0755 24.7658C77.7955 25.4058 78.2888 26.2858 78.5555 27.4058L71.9955 29.7058C72.2221 30.1191 72.5421 30.4458 72.9555 30.6858C73.3688 30.9124 73.8355 31.0258 74.3555 31.0258C74.7288 31.0258 75.0821 30.9591 75.4155 30.8258C75.7488 30.6924 76.0688 30.5191 76.3755 30.3058L77.2355 31.6858C76.8088 31.9658 76.3355 32.1924 75.8155 32.3658C75.3088 32.5391 74.8088 32.6258 74.3155 32.6258ZM71.5955 28.1258C71.5821 28.2858 71.5888 28.4391 71.6155 28.5858L76.4355 26.8058C76.2488 26.4058 75.9755 26.0524 75.6155 25.7458C75.2688 25.4391 74.8021 25.2858 74.2155 25.2858C73.4555 25.2858 72.8288 25.5524 72.3355 26.0858C71.8421 26.6191 71.5955 27.2991 71.5955 28.1258Z" fill="#A44A3F"/>
<rect x="314" width="49" height="49" rx="24.5" fill="#A44A3F"/>
<path d="M348 33.5557L342 27.7038L348 33.5557ZM344 22.8272C344 23.7238 343.819 24.6115 343.467 25.4399C343.115 26.2682 342.6 27.0208 341.95 27.6548C341.3 28.2887 340.528 28.7916 339.679 29.1347C338.83 29.4778 337.919 29.6544 337 29.6544C336.081 29.6544 335.17 29.4778 334.321 29.1347C333.472 28.7916 332.7 28.2887 332.05 27.6548C331.4 27.0208 330.885 26.2682 330.533 25.4399C330.181 24.6115 330 23.7238 330 22.8272C330 21.0165 330.737 19.28 332.05 17.9996C333.363 16.7193 335.143 16 337 16C338.857 16 340.637 16.7193 341.95 17.9996C343.263 19.28 344 21.0165 344 22.8272Z" stroke="white" stroke-width="2" stroke-linecap="round" stroke-linejoin="round"/>
</svg>
