<svg width="174" height="49" viewBox="0 0 174 49" fill="none" xmlns="http://www.w3.org/2000/svg">
<rect width="174" height="49" rx="24.5" fill="#EFEBE7"/>
<path d="M20.08 17.9658H28.66V19.8258H22.02V24.4258H27.84V26.2858H22.02V32.4258H20.08V17.9658ZM31.0653 24.1458H32.9253V32.4258H31.0653V24.1458ZM30.9253 21.1658C30.9253 20.8591 31.0386 20.6124 31.2653 20.4258C31.5053 20.2258 31.7653 20.1258 32.0453 20.1258C32.3253 20.1258 32.5786 20.2258 32.8053 20.4258C33.032 20.6124 33.1453 20.8591 33.1453 21.1658C33.1453 21.4724 33.032 21.7258 32.8053 21.9258C32.5786 22.1124 32.3253 22.2058 32.0453 22.2058C31.7653 22.2058 31.5053 22.1124 31.2653 21.9258C31.0386 21.7258 30.9253 21.4724 30.9253 21.1658ZM36.163 16.9258H38.023V32.4258H36.163V16.9258ZM42.0606 20.5058H43.9406V24.1658H46.2006V25.6458H43.9406V32.4258H42.0606V25.6458H40.5406V24.1658H42.0606V20.5058ZM52.3077 32.6258C51.3743 32.6258 50.561 32.4391 49.8677 32.0658C49.1877 31.6791 48.661 31.1524 48.2877 30.4858C47.9277 29.8191 47.7477 29.0658 47.7477 28.2258C47.7477 27.4124 47.9477 26.6724 48.3477 26.0058C48.761 25.3258 49.3143 24.7924 50.0077 24.4058C50.7143 24.0058 51.4943 23.8058 52.3477 23.8058C53.441 23.8058 54.3477 24.1258 55.0677 24.7658C55.7877 25.4058 56.281 26.2858 56.5477 27.4058L49.9877 29.7058C50.2143 30.1191 50.5343 30.4458 50.9477 30.6858C51.361 30.9124 51.8277 31.0258 52.3477 31.0258C52.721 31.0258 53.0743 30.9591 53.4077 30.8258C53.741 30.6924 54.061 30.5191 54.3677 30.3058L55.2277 31.6858C54.801 31.9658 54.3277 32.1924 53.8077 32.3658C53.301 32.5391 52.801 32.6258 52.3077 32.6258ZM49.5877 28.1258C49.5743 28.2858 49.581 28.4391 49.6077 28.5858L54.4277 26.8058C54.241 26.4058 53.9677 26.0524 53.6077 25.7458C53.261 25.4391 52.7943 25.2858 52.2077 25.2858C51.4477 25.2858 50.821 25.5524 50.3277 26.0858C49.8343 26.6191 49.5877 27.2991 49.5877 28.1258ZM60.5183 24.1458L60.6583 26.0858C60.8849 25.6191 61.1983 25.2191 61.5983 24.8858C61.9983 24.5391 62.4116 24.2791 62.8383 24.1058C63.2783 23.9191 63.6583 23.8191 63.9783 23.8058L63.8983 25.6658C63.2716 25.6391 62.7183 25.7658 62.2383 26.0458C61.7583 26.3124 61.3849 26.6791 61.1183 27.1458C60.8516 27.6124 60.7183 28.1124 60.7183 28.6458V32.4258H58.8583V24.1458H60.5183Z" fill="#A44A3F"/>
<path d="M147.502 31.2C147.151 31.1987 146.804 31.1406 146.488 31.0299C146.172 30.9192 145.893 30.7586 145.673 30.56L139.884 25.46C139.546 25.1529 139.333 24.783 139.27 24.3922C139.207 24.0015 139.296 23.6057 139.527 23.25C139.714 22.9408 140.02 22.6774 140.407 22.4912C140.795 22.305 141.248 22.2039 141.713 22.2H153.29C153.755 22.2039 154.208 22.305 154.596 22.4912C154.983 22.6774 155.289 22.9408 155.477 23.25C155.708 23.6057 155.797 24.0015 155.733 24.3922C155.67 24.783 155.457 25.1529 155.119 25.46L149.33 30.56C149.11 30.7586 148.831 30.9192 148.515 31.0299C148.199 31.1406 147.853 31.1987 147.502 31.2Z" fill="#A44A3F"/>
</svg>
