<svg width="51" height="51" viewBox="0 0 51 51" fill="none" xmlns="http://www.w3.org/2000/svg">
<path d="M25.1458 20.176C23.8277 20.176 22.5636 20.7345 21.6316 21.7287C20.6996 22.7228 20.176 24.0712 20.176 25.4771C20.176 26.883 20.6996 28.2314 21.6316 29.2255C22.5636 30.2197 23.8277 30.7782 25.1458 30.7782C26.4638 30.7782 27.7279 30.2197 28.6599 29.2255C29.5919 28.2314 30.1155 26.883 30.1155 25.4771C30.1155 24.0712 29.5919 22.7228 28.6599 21.7287C27.7279 20.7345 26.4638 20.176 25.1458 20.176ZM25.1458 28.9198C24.2895 28.9198 23.4683 28.557 22.8628 27.9111C22.2573 27.2653 21.9172 26.3893 21.9172 25.476C21.9172 24.5626 22.2573 23.6866 22.8628 23.0408C23.4683 22.3949 24.2895 22.0321 25.1458 22.0321C26.0021 22.0321 26.8233 22.3949 27.4288 23.0408C28.0343 23.6866 28.3744 24.5626 28.3744 25.476C28.3744 26.3893 28.0343 27.2653 27.4288 27.9111C26.8233 28.557 26.0021 28.9198 25.1458 28.9198Z" fill="#EFEBE7"/>
<path d="M30.7781 20.8385C31.5101 20.8385 32.1034 20.2452 32.1034 19.5133C32.1034 18.7813 31.5101 18.188 30.7781 18.188C30.0462 18.188 29.4529 18.7813 29.4529 19.5133C29.4529 20.2452 30.0462 20.8385 30.7781 20.8385Z" fill="#EFEBE7"/>
<path d="M34.8726 18.4125C34.6085 17.7316 34.2049 17.1133 33.6877 16.5971C33.1706 16.0809 32.5511 15.6783 31.8691 15.4149C31.071 15.1157 30.2278 14.954 29.3755 14.9365C28.277 14.8887 27.9291 14.875 25.1436 14.875C22.358 14.875 22.0009 14.875 20.9116 14.9365C20.0599 14.9531 19.2174 15.1149 18.4203 15.4149C17.7381 15.6779 17.1185 16.0805 16.6013 16.5967C16.084 17.113 15.6806 17.7315 15.4168 18.4125C15.1172 19.2093 14.9555 20.0512 14.9389 20.9022C14.8898 21.9978 14.875 22.3452 14.875 25.1276C14.875 27.9089 14.875 28.2631 14.9389 29.353C14.956 30.2049 15.1168 31.0455 15.4168 31.8439C15.6813 32.5247 16.0852 33.1429 16.6025 33.659C17.1199 34.1752 17.7394 34.5779 18.4214 34.8415C19.217 35.1527 20.0599 35.326 20.9138 35.354C22.0123 35.4019 22.3603 35.4167 25.1458 35.4167C27.9314 35.4167 28.2885 35.4167 29.3778 35.354C30.23 35.3367 31.0732 35.1754 31.8714 34.8768C32.5532 34.6128 33.1725 34.2098 33.6896 33.6934C34.2067 33.1771 34.6104 32.5588 34.8748 31.878C35.1748 31.0808 35.3357 30.2402 35.3528 29.3883C35.4018 28.2927 35.4167 27.9453 35.4167 25.1629C35.4167 22.3805 35.4167 22.0275 35.3528 20.9375C35.3395 20.0745 35.177 19.2203 34.8726 18.4125ZM33.4832 29.2687C33.4758 29.9251 33.3558 30.5754 33.1284 31.1912C32.9571 31.6341 32.6949 32.0363 32.3585 32.372C32.0222 32.7076 31.6192 32.9692 31.1756 33.14C30.5655 33.366 29.9212 33.4858 29.2706 33.4942C28.1869 33.5443 27.8812 33.5568 25.1025 33.5568C22.3215 33.5568 22.0374 33.5568 20.9332 33.4942C20.283 33.4862 19.6389 33.3664 19.0294 33.14C18.5842 32.9702 18.1796 32.7091 17.8418 32.3734C17.5041 32.0377 17.2406 31.635 17.0686 31.1912C16.8444 30.582 16.7244 29.9394 16.7138 29.2904C16.6648 28.2084 16.6533 27.9032 16.6533 25.1287C16.6533 22.3532 16.6533 22.0696 16.7138 20.966C16.7212 20.31 16.8412 19.6601 17.0686 19.0446C17.4165 18.146 18.1294 17.4387 19.0294 17.0948C19.6392 16.8694 20.2831 16.7496 20.9332 16.7406C22.018 16.6916 22.3226 16.6779 25.1025 16.6779C27.8824 16.6779 28.1675 16.6779 29.2706 16.7406C29.9213 16.7484 30.5657 16.8682 31.1756 17.0948C31.6192 17.2659 32.0221 17.5278 32.3584 17.8636C32.6947 18.1994 32.957 18.6016 33.1284 19.0446C33.3526 19.6539 33.4726 20.2965 33.4832 20.9455C33.5322 22.0286 33.5448 22.3327 33.5448 25.1082C33.5448 27.8827 33.5448 28.1811 33.4957 29.2699H33.4832V29.2687Z" fill="#EFEBE7"/>
</svg>
