<svg width="51" height="51" viewBox="0 0 51 51" fill="none" xmlns="http://www.w3.org/2000/svg">
<path d="M36.125 19.0129C35.343 19.3529 34.5036 19.5866 33.6217 19.6886C34.5227 19.1574 35.2113 18.3159 35.5385 17.315C34.6799 17.8154 33.7431 18.1674 32.7675 18.3563C32.3571 17.9261 31.8634 17.5841 31.3165 17.351C30.7696 17.1179 30.1809 16.9986 29.5864 17.0005C27.1788 17.0005 25.228 18.9236 25.228 21.293C25.228 21.6288 25.2663 21.956 25.3406 22.2705C23.6137 22.1885 21.9228 21.7474 20.3759 20.9754C18.8289 20.2034 17.4599 19.1174 16.3561 17.7868C15.9684 18.4393 15.7643 19.1846 15.7654 19.9436C15.7654 21.4311 16.5367 22.7486 17.7055 23.5158C17.0137 23.4941 16.3367 23.3099 15.7292 22.9781V23.0313C15.7358 24.0289 16.0879 24.9934 16.7257 25.7605C17.3634 26.5277 18.2474 27.0501 19.227 27.2388C18.5839 27.4088 17.911 27.4335 17.2571 27.311C17.5421 28.1692 18.0873 28.9174 18.8169 29.4517C19.5465 29.9859 20.4244 30.2798 21.3286 30.2924C19.7773 31.4878 17.8726 32.1337 15.9141 32.1284C15.5635 32.1284 15.2171 32.1071 14.875 32.0689C16.8735 33.3339 19.1908 34.0039 21.556 34.0005C29.5758 34.0005 33.9596 27.4598 33.9596 21.786L33.9447 21.2293C34.7996 20.6285 35.5383 19.8775 36.125 19.0129Z" fill="#EFEBE7"/>
</svg>
